# xmcd
#
# Track frame offsets: 
#        150
#        16830
#        37478
#        58453
#        78885
#        99260
#        118903
#        134885
#        158210
#        179003
#
# Disc length: 2812 seconds
#
# Revision: 2
# Processed by: cddbd v1.5.2PL0 Copyright (c) Steve Scherf et al.
# Submitted via: ExactAudioCopy v1.0b3
#
DISCID=920afa0a
DTITLE=Bell Biv Devoe (BBD) - Poison
DYEAR=1990
DGENRE=R&B
TTITLE0=Dope!
TTITLE1=B.B.D. (I Thought It Was Me)?
TTITLE2=Let Me Know Something?!
TTITLE3=Do Me!
TTITLE4=Ronnie, Bobby, Ricky, Mike, Ralph And Johnny (Word To The Muth
TTITLE4=a)!
TTITLE5=Poison.
TTITLE6=Ain't Nut'in' Changed!
TTITLE7=When Will I See U Smile Again?
TTITLE8=I Do Need You.
TTITLE9=Poison. (Extended Club Version - Bonus Track)
EXTD=YEAR: 1990
EXTT0=
EXTT1=
EXTT2=
EXTT3=
EXTT4=
EXTT5=
EXTT6=
EXTT7=
EXTT8=
EXTT9=
PLAYORDER=
